<mxfile host="app.diagrams.net" modified="2023-09-17T21:55:25.389Z" agent="Mozilla/5.0 (Windows NT 10.0; Win64; x64) AppleWebKit/537.36 (KHTML, like Gecko) Chrome/116.0.0.0 Safari/537.36" etag="N__bjRMYVdoOCr8Fu5tq" version="21.7.5" type="device">
  <diagram name="Page-1" id="bFTFt55EDI8Cey1z-oLR">
    <mxGraphModel dx="1452" dy="902" grid="0" gridSize="10" guides="1" tooltips="1" connect="1" arrows="1" fold="1" page="1" pageScale="1" pageWidth="1100" pageHeight="1300" math="0" shadow="0">
      <root>
        <mxCell id="0" />
        <mxCell id="1" parent="0" />
        <mxCell id="q5JlAGRupuynp3GvB8Is-44" value="" style="rounded=0;whiteSpace=wrap;html=1;dashed=1;fillColor=#dae8fc;strokeColor=#6c8ebf;" vertex="1" parent="1">
          <mxGeometry x="380" y="450" width="260" height="310" as="geometry" />
        </mxCell>
        <mxCell id="q5JlAGRupuynp3GvB8Is-3" style="edgeStyle=orthogonalEdgeStyle;rounded=0;orthogonalLoop=1;jettySize=auto;html=1;exitX=1;exitY=0.5;exitDx=0;exitDy=0;" edge="1" parent="1" source="q5JlAGRupuynp3GvB8Is-1" target="q5JlAGRupuynp3GvB8Is-2">
          <mxGeometry relative="1" as="geometry" />
        </mxCell>
        <mxCell id="q5JlAGRupuynp3GvB8Is-1" value="&lt;b&gt;Input&lt;br&gt;&lt;/b&gt;Solar Energy" style="rounded=0;whiteSpace=wrap;html=1;" vertex="1" parent="1">
          <mxGeometry x="130" y="100" width="120" height="60" as="geometry" />
        </mxCell>
        <mxCell id="q5JlAGRupuynp3GvB8Is-55" style="edgeStyle=orthogonalEdgeStyle;rounded=0;orthogonalLoop=1;jettySize=auto;html=1;exitX=0.5;exitY=0;exitDx=0;exitDy=0;entryX=0.5;entryY=0;entryDx=0;entryDy=0;" edge="1" parent="1" source="q5JlAGRupuynp3GvB8Is-2" target="q5JlAGRupuynp3GvB8Is-1">
          <mxGeometry relative="1" as="geometry" />
        </mxCell>
        <mxCell id="q5JlAGRupuynp3GvB8Is-2" value="&lt;b&gt;Output&lt;br&gt;&lt;/b&gt;Solar Panel Orientation" style="rounded=0;whiteSpace=wrap;html=1;" vertex="1" parent="1">
          <mxGeometry x="390" y="100" width="120" height="60" as="geometry" />
        </mxCell>
        <mxCell id="q5JlAGRupuynp3GvB8Is-8" style="edgeStyle=orthogonalEdgeStyle;rounded=0;orthogonalLoop=1;jettySize=auto;html=1;exitX=1;exitY=0.5;exitDx=0;exitDy=0;entryX=0;entryY=0.5;entryDx=0;entryDy=0;" edge="1" parent="1" source="q5JlAGRupuynp3GvB8Is-5" target="q5JlAGRupuynp3GvB8Is-7">
          <mxGeometry relative="1" as="geometry" />
        </mxCell>
        <mxCell id="q5JlAGRupuynp3GvB8Is-59" style="edgeStyle=orthogonalEdgeStyle;rounded=0;orthogonalLoop=1;jettySize=auto;html=1;exitX=0.5;exitY=1;exitDx=0;exitDy=0;entryX=0;entryY=0.5;entryDx=0;entryDy=0;" edge="1" parent="1" source="q5JlAGRupuynp3GvB8Is-5" target="q5JlAGRupuynp3GvB8Is-57">
          <mxGeometry relative="1" as="geometry" />
        </mxCell>
        <mxCell id="q5JlAGRupuynp3GvB8Is-5" value="&lt;b&gt;Input&lt;br&gt;&lt;/b&gt;Solar Energy" style="rounded=0;whiteSpace=wrap;html=1;" vertex="1" parent="1">
          <mxGeometry x="112" y="219" width="120" height="60" as="geometry" />
        </mxCell>
        <mxCell id="q5JlAGRupuynp3GvB8Is-54" style="edgeStyle=orthogonalEdgeStyle;rounded=0;orthogonalLoop=1;jettySize=auto;html=1;exitX=0.5;exitY=0;exitDx=0;exitDy=0;entryX=0.5;entryY=0;entryDx=0;entryDy=0;" edge="1" parent="1" source="q5JlAGRupuynp3GvB8Is-6" target="q5JlAGRupuynp3GvB8Is-5">
          <mxGeometry relative="1" as="geometry" />
        </mxCell>
        <mxCell id="q5JlAGRupuynp3GvB8Is-6" value="&lt;b&gt;Output&lt;br&gt;&lt;/b&gt;Panel Tilt&lt;br&gt;Panel Rotation" style="rounded=0;whiteSpace=wrap;html=1;" vertex="1" parent="1">
          <mxGeometry x="522" y="219" width="120" height="60" as="geometry" />
        </mxCell>
        <mxCell id="q5JlAGRupuynp3GvB8Is-9" style="edgeStyle=orthogonalEdgeStyle;rounded=0;orthogonalLoop=1;jettySize=auto;html=1;exitX=1;exitY=0.5;exitDx=0;exitDy=0;entryX=0;entryY=0.5;entryDx=0;entryDy=0;" edge="1" parent="1" source="q5JlAGRupuynp3GvB8Is-7" target="q5JlAGRupuynp3GvB8Is-6">
          <mxGeometry relative="1" as="geometry" />
        </mxCell>
        <mxCell id="q5JlAGRupuynp3GvB8Is-7" value="Arduino" style="rounded=0;whiteSpace=wrap;html=1;" vertex="1" parent="1">
          <mxGeometry x="312" y="219" width="120" height="60" as="geometry" />
        </mxCell>
        <mxCell id="q5JlAGRupuynp3GvB8Is-18" style="edgeStyle=orthogonalEdgeStyle;rounded=0;orthogonalLoop=1;jettySize=auto;html=1;exitX=1;exitY=0.5;exitDx=0;exitDy=0;entryX=0;entryY=0.5;entryDx=0;entryDy=0;" edge="1" parent="1" source="q5JlAGRupuynp3GvB8Is-11" target="q5JlAGRupuynp3GvB8Is-19">
          <mxGeometry relative="1" as="geometry">
            <mxPoint x="220" y="540" as="targetPoint" />
          </mxGeometry>
        </mxCell>
        <mxCell id="q5JlAGRupuynp3GvB8Is-45" style="edgeStyle=orthogonalEdgeStyle;rounded=0;orthogonalLoop=1;jettySize=auto;html=1;exitX=0.5;exitY=1;exitDx=0;exitDy=0;entryX=0;entryY=0.5;entryDx=0;entryDy=0;" edge="1" parent="1" source="q5JlAGRupuynp3GvB8Is-11" target="q5JlAGRupuynp3GvB8Is-15">
          <mxGeometry relative="1" as="geometry" />
        </mxCell>
        <mxCell id="q5JlAGRupuynp3GvB8Is-48" value="Inputs Power" style="edgeLabel;html=1;align=center;verticalAlign=middle;resizable=0;points=[];fontStyle=1" vertex="1" connectable="0" parent="q5JlAGRupuynp3GvB8Is-45">
          <mxGeometry x="0.1561" y="-2" relative="1" as="geometry">
            <mxPoint x="4" y="8" as="offset" />
          </mxGeometry>
        </mxCell>
        <mxCell id="q5JlAGRupuynp3GvB8Is-11" value="Solar Energy" style="rounded=0;whiteSpace=wrap;html=1;" vertex="1" parent="1">
          <mxGeometry x="10" y="550" width="120" height="60" as="geometry" />
        </mxCell>
        <mxCell id="q5JlAGRupuynp3GvB8Is-14" value="PID Controller" style="rounded=0;whiteSpace=wrap;html=1;" vertex="1" parent="1">
          <mxGeometry x="450" y="510" width="120" height="60" as="geometry" />
        </mxCell>
        <mxCell id="q5JlAGRupuynp3GvB8Is-32" style="edgeStyle=orthogonalEdgeStyle;rounded=0;orthogonalLoop=1;jettySize=auto;html=1;exitX=0.5;exitY=0;exitDx=0;exitDy=0;" edge="1" parent="1" source="q5JlAGRupuynp3GvB8Is-15">
          <mxGeometry relative="1" as="geometry">
            <mxPoint x="510" y="760" as="targetPoint" />
          </mxGeometry>
        </mxCell>
        <mxCell id="q5JlAGRupuynp3GvB8Is-50" value="Outputs Power" style="edgeLabel;html=1;align=center;verticalAlign=middle;resizable=0;points=[];fontStyle=1" vertex="1" connectable="0" parent="q5JlAGRupuynp3GvB8Is-32">
          <mxGeometry x="0.0484" y="-1" relative="1" as="geometry">
            <mxPoint x="49" as="offset" />
          </mxGeometry>
        </mxCell>
        <mxCell id="q5JlAGRupuynp3GvB8Is-46" style="edgeStyle=orthogonalEdgeStyle;rounded=0;orthogonalLoop=1;jettySize=auto;html=1;exitX=1;exitY=0.5;exitDx=0;exitDy=0;entryX=0.5;entryY=1;entryDx=0;entryDy=0;fontStyle=1" edge="1" parent="1" source="q5JlAGRupuynp3GvB8Is-15" target="q5JlAGRupuynp3GvB8Is-33">
          <mxGeometry relative="1" as="geometry" />
        </mxCell>
        <mxCell id="q5JlAGRupuynp3GvB8Is-47" value="Outputs Power" style="edgeLabel;html=1;align=center;verticalAlign=middle;resizable=0;points=[];fontStyle=1" vertex="1" connectable="0" parent="q5JlAGRupuynp3GvB8Is-46">
          <mxGeometry x="0.3769" y="1" relative="1" as="geometry">
            <mxPoint x="51" as="offset" />
          </mxGeometry>
        </mxCell>
        <mxCell id="q5JlAGRupuynp3GvB8Is-15" value="Battery" style="rounded=0;whiteSpace=wrap;html=1;" vertex="1" parent="1">
          <mxGeometry x="450" y="850" width="120" height="60" as="geometry" />
        </mxCell>
        <mxCell id="q5JlAGRupuynp3GvB8Is-41" style="edgeStyle=orthogonalEdgeStyle;rounded=0;orthogonalLoop=1;jettySize=auto;html=1;exitX=1;exitY=0.5;exitDx=0;exitDy=0;entryX=0;entryY=0.5;entryDx=0;entryDy=0;" edge="1" parent="1" source="q5JlAGRupuynp3GvB8Is-19">
          <mxGeometry relative="1" as="geometry">
            <mxPoint x="380" y="580" as="targetPoint" />
          </mxGeometry>
        </mxCell>
        <mxCell id="q5JlAGRupuynp3GvB8Is-19" value="Electricity Meter" style="rounded=0;whiteSpace=wrap;html=1;" vertex="1" parent="1">
          <mxGeometry x="190" y="550" width="120" height="60" as="geometry" />
        </mxCell>
        <mxCell id="q5JlAGRupuynp3GvB8Is-37" style="edgeStyle=orthogonalEdgeStyle;rounded=0;orthogonalLoop=1;jettySize=auto;html=1;exitX=0.5;exitY=0;exitDx=0;exitDy=0;entryX=0.5;entryY=0;entryDx=0;entryDy=0;strokeColor=#000000;" edge="1" parent="1" source="q5JlAGRupuynp3GvB8Is-21" target="q5JlAGRupuynp3GvB8Is-11">
          <mxGeometry relative="1" as="geometry">
            <Array as="points">
              <mxPoint x="910" y="430" />
              <mxPoint x="70" y="430" />
            </Array>
          </mxGeometry>
        </mxCell>
        <mxCell id="q5JlAGRupuynp3GvB8Is-38" value="&lt;b&gt;Feed Back Loop&lt;/b&gt;" style="edgeLabel;html=1;align=center;verticalAlign=middle;resizable=0;points=[];" vertex="1" connectable="0" parent="q5JlAGRupuynp3GvB8Is-37">
          <mxGeometry x="-0.0846" y="4" relative="1" as="geometry">
            <mxPoint x="-26" y="-14" as="offset" />
          </mxGeometry>
        </mxCell>
        <mxCell id="q5JlAGRupuynp3GvB8Is-21" value="Maximized Solar Energy" style="rounded=0;whiteSpace=wrap;html=1;" vertex="1" parent="1">
          <mxGeometry x="850" y="550" width="120" height="60" as="geometry" />
        </mxCell>
        <mxCell id="q5JlAGRupuynp3GvB8Is-23" value="&lt;b&gt;Arduino&lt;/b&gt;" style="text;html=1;strokeColor=none;fillColor=none;align=center;verticalAlign=middle;whiteSpace=wrap;rounded=0;" vertex="1" parent="1">
          <mxGeometry x="480" y="450" width="60" height="30" as="geometry" />
        </mxCell>
        <mxCell id="q5JlAGRupuynp3GvB8Is-36" style="edgeStyle=orthogonalEdgeStyle;rounded=0;orthogonalLoop=1;jettySize=auto;html=1;exitX=1;exitY=0.5;exitDx=0;exitDy=0;entryX=0;entryY=0.5;entryDx=0;entryDy=0;" edge="1" parent="1" source="q5JlAGRupuynp3GvB8Is-33" target="q5JlAGRupuynp3GvB8Is-21">
          <mxGeometry relative="1" as="geometry" />
        </mxCell>
        <mxCell id="q5JlAGRupuynp3GvB8Is-33" value="New Panel Tilt&lt;br&gt;New Panel Rotation" style="rounded=0;whiteSpace=wrap;html=1;" vertex="1" parent="1">
          <mxGeometry x="680" y="550" width="120" height="60" as="geometry" />
        </mxCell>
        <mxCell id="q5JlAGRupuynp3GvB8Is-52" style="edgeStyle=orthogonalEdgeStyle;rounded=0;orthogonalLoop=1;jettySize=auto;html=1;exitX=0.5;exitY=0;exitDx=0;exitDy=0;entryX=0.75;entryY=1;entryDx=0;entryDy=0;" edge="1" parent="1" source="q5JlAGRupuynp3GvB8Is-42" target="q5JlAGRupuynp3GvB8Is-14">
          <mxGeometry relative="1" as="geometry" />
        </mxCell>
        <mxCell id="q5JlAGRupuynp3GvB8Is-42" value="Old panel position" style="rounded=0;whiteSpace=wrap;html=1;" vertex="1" parent="1">
          <mxGeometry x="510" y="670" width="120" height="60" as="geometry" />
        </mxCell>
        <mxCell id="q5JlAGRupuynp3GvB8Is-51" style="edgeStyle=orthogonalEdgeStyle;rounded=0;orthogonalLoop=1;jettySize=auto;html=1;exitX=0.5;exitY=0;exitDx=0;exitDy=0;entryX=0.25;entryY=1;entryDx=0;entryDy=0;" edge="1" parent="1" source="q5JlAGRupuynp3GvB8Is-43" target="q5JlAGRupuynp3GvB8Is-14">
          <mxGeometry relative="1" as="geometry" />
        </mxCell>
        <mxCell id="q5JlAGRupuynp3GvB8Is-43" value="Old energy measurement" style="rounded=0;whiteSpace=wrap;html=1;" vertex="1" parent="1">
          <mxGeometry x="390" y="670" width="120" height="60" as="geometry" />
        </mxCell>
        <mxCell id="q5JlAGRupuynp3GvB8Is-53" value="" style="endArrow=classic;html=1;rounded=0;entryX=0;entryY=0.5;entryDx=0;entryDy=0;exitX=1.001;exitY=0.42;exitDx=0;exitDy=0;exitPerimeter=0;" edge="1" parent="1" source="q5JlAGRupuynp3GvB8Is-44" target="q5JlAGRupuynp3GvB8Is-33">
          <mxGeometry width="50" height="50" relative="1" as="geometry">
            <mxPoint x="650" y="590" as="sourcePoint" />
            <mxPoint x="630" y="710" as="targetPoint" />
          </mxGeometry>
        </mxCell>
        <mxCell id="q5JlAGRupuynp3GvB8Is-58" style="edgeStyle=orthogonalEdgeStyle;rounded=0;orthogonalLoop=1;jettySize=auto;html=1;exitX=0.5;exitY=0;exitDx=0;exitDy=0;entryX=0.5;entryY=1;entryDx=0;entryDy=0;" edge="1" parent="1" source="q5JlAGRupuynp3GvB8Is-57" target="q5JlAGRupuynp3GvB8Is-7">
          <mxGeometry relative="1" as="geometry" />
        </mxCell>
        <mxCell id="q5JlAGRupuynp3GvB8Is-60" style="edgeStyle=orthogonalEdgeStyle;rounded=0;orthogonalLoop=1;jettySize=auto;html=1;exitX=1;exitY=0.5;exitDx=0;exitDy=0;entryX=0.5;entryY=1;entryDx=0;entryDy=0;" edge="1" parent="1" source="q5JlAGRupuynp3GvB8Is-57" target="q5JlAGRupuynp3GvB8Is-6">
          <mxGeometry relative="1" as="geometry" />
        </mxCell>
        <mxCell id="q5JlAGRupuynp3GvB8Is-57" value="Battery" style="rounded=0;whiteSpace=wrap;html=1;" vertex="1" parent="1">
          <mxGeometry x="312" y="310" width="120" height="60" as="geometry" />
        </mxCell>
      </root>
    </mxGraphModel>
  </diagram>
</mxfile>
